Documentário sobre a vida e a obra do ator, diretor e produtor paulista José Mojica Marins, penetrando em seu estúdio e mostrando o seu mundo: a origem de Zé do Caixão... O choque fascinante de um primitivo contra o cinema, em plena era de viagem à lua... A primeira religião cinematográfica: sua escola de arte dramática, especializada no sobrenatural. Confidências de um autor de terror sobre a sua luta (mais de qua¬renta filmes realizados). Complementa o documentário trechos do filme O Estranho Mundo de Zé do Caixão.
 
http://www.imdb.com/title/tt0938345/

General 
Unique ID : 248417664293777991446198867267223365120 (0xBAE38078715FAB879BC7C00372E52600) 
Complete name : O.Universo.de.Mojica.Marins.1978.DVDRip.x264.mkv 
Format : Matroska 
Format version : Version 2 
File size : 375 MiB 
Duration : 25mn 24s 
Overall bit rate : 2 062 Kbps 
Encoded date : UTC 2013-06-08 02:59:45 
Writing application : mkvmerge v5.8.0 ('No Sleep / Pillow') built on Sep 2 2012 15:37:04 
Writing library : libebml v1.2.3 + libmatroska v1.3.0 

Video 
ID : 1 
Format : AVC 
Format/Info : Advanced Video Codec 
Format profile : High@L3.1 
Format settings, CABAC : Yes 
Format settings, ReFrames : 11 frames 
Codec ID : V_MPEG4/ISO/AVC 
Duration : 25mn 24s 
Bit rate : 1 829 Kbps 
Width : 710 pixels 
Height : 474 pixels 
Display aspect ratio : 4:3 
Original display aspect ratio : 4:3 
Frame rate mode : Constant 
Frame rate : 23.976 fps 
Color space : YUV 
Chroma subsampling : 4:2:0 
Bit depth : 8 bits 
Scan type : Progressive 
Bits/(Pixel*Frame) : 0.227 
Stream size : 332 MiB (89%) 
Writing library : x264 core 132 r2310 76a5c3a 
Encoding settings : cabac=1 / ref=11 / deblock=1:-3:-3 / analyse=0x3:0x133 / me=umh / subme=11 / psy=1 / psy_rd=1.00:0.00 / mixed_ref=1 / me_range=48 / chroma_me=1 / trellis=2 / 8x8dct=1 / cqm=0 / deadzone=21,11 / fast_pskip=0 / chroma_qp_offset=-2 / threads=12 / lookahead_threads=3 / sliced_threads=0 / nr=0 / decimate=1 / interlaced=0 / bluray_compat=0 / constrained_intra=0 / bframes=16 / b_pyramid=2 / b_adapt=2 / b_bias=0 / direct=3 / weightb=1 / open_gop=0 / weightp=2 / keyint=250 / keyint_min=23 / scenecut=40 / intra_refresh=0 / rc_lookahead=60 / rc=crf / mbtree=1 / crf=18.0 / qcomp=0.60 / qpmin=0 / qpmax=69 / qpstep=4 / ip_ratio=1.40 / aq=2:1.00 
Language : English 
Default : Yes 
Forced : No 

Audio 
ID : 2 
Format : AC-3 
Format/Info : Audio Coding 3 
Mode extension : CM (complete main) 
Format settings, Endianness : Big 
Codec ID : A_AC3 
Duration : 25mn 24s 
Bit rate mode : Constant 
Bit rate : 192 Kbps 
Channel(s) : 2 channels 
Channel positions : Front: L R 
Sampling rate : 48.0 KHz 
Bit depth : 16 bits 
Compression mode : Lossy 
Stream size : 34.9 MiB (9%) 
Language : Portuguese 
Default : Yes 
Forced : No 

Menu 
00:00:00.000 : en:Chapter 1 
00:10:36.500 : en:Chapter 2 

